# xmcd
#
# Track frame offsets:
#	150
#	13067
#	27187
#	50636
#	64001
#	86691
#	104968
#	121992
#	141677
#	164183
#	184674
#	210060
#
# Disc length: 3019 seconds
#
# Revision: 0
# Processed by: cddbd v1.5.2PL0 Copyright (c) Steve Scherf et al.
# Submitted via: FairStars CD Ripper 1.90
#
DISCID=b20bc90c
DTITLE=Mr Tchang and The Texas Sluts - On The Game !!!
DYEAR=2007
DGENRE=Blues
TTITLE0=Good Time Charlie
TTITLE1=I'd Rather Be Blind
TTITLE2=I Believe To My Soul
TTITLE3=Doggone Man
TTITLE4=Teardrops
TTITLE5=Insomnia
TTITLE6=On The Game !!!
TTITLE7=Out Of Reach
TTITLE8=We Play The Blues
TTITLE9=Rainin' in Bordeaux
TTITLE10=Nobody But You
TTITLE11=Under Pressure
EXTD=
EXTT0=
EXTT1=
EXTT2=
EXTT3=
EXTT4=
EXTT5=
EXTT6=
EXTT7=
EXTT8=
EXTT9=
EXTT10=
EXTT11=
PLAYORDER=
